HIERARCHY
ROOT Hips
{
    OFFSET   0.000000   0.000000   0.000000
    CHANNELS 6 Xposition Yposition Zposition Zrotation Xrotation Yrotation
    JOINT Chest
    {
        OFFSET   0.000000   8.007230   0.000000
        CHANNELS 3 Zrotation Xrotation Yrotation
        JOINT Chest2
        {
            OFFSET   0.000000  22.077100   0.000000
            CHANNELS 3 Zrotation Xrotation Yrotation
            JOINT Neck
            {
                OFFSET   0.000000  23.254800  -0.000021
                CHANNELS 3 Zrotation Xrotation Yrotation
                JOINT Head
                {
                    OFFSET   0.000000  14.370000   1.956610
                    CHANNELS 3 Zrotation Xrotation Yrotation
                    End Site
                    {
                        OFFSET   0.000000  19.566000   0.000000
                    }
                }
            }
            JOINT LeftCollar
            {
                OFFSET   3.911900  19.017000  -0.467063
                CHANNELS 3 Zrotation Xrotation Yrotation
                JOINT LeftShoulder
                {
                    OFFSET  10.383700   0.000000   0.000000
                    CHANNELS 3 Zrotation Xrotation Yrotation
                    JOINT LeftElbow
                    {
                        OFFSET  26.662100   0.001529   0.000325
                        CHANNELS 3 Zrotation Xrotation Yrotation
                        JOINT LeftWrist
                        {
                            OFFSET  28.869000  -0.000011  -0.000096
                            CHANNELS 3 Zrotation Xrotation Yrotation
                            JOINT LeftFinger0
                            {
                                OFFSET   2.044650  -2.323460   3.252850
                                CHANNELS 3 Zrotation Xrotation Yrotation
                                JOINT LeftFinger01
                                {
                                    OFFSET   3.088130   0.000000   0.000000
                                    CHANNELS 3 Zrotation Xrotation Yrotation
                                    JOINT LeftFinger02
                                    {
                                        OFFSET   2.639460   0.000000   0.000000
                                        CHANNELS 3 Zrotation Xrotation Yrotation
                                        End Site
                                        {
                                            OFFSET   2.582190   0.000000   0.000000
                                        }
                                    }
                                }
                            }
                            JOINT LeftFinger1
                            {
                                OFFSET   8.364480   0.000000   3.252850
                                CHANNELS 3 Zrotation Xrotation Yrotation
                                JOINT LeftFinger11
                                {
                                    OFFSET   4.646930   0.000000   0.000000
                                    CHANNELS 3 Zrotation Xrotation Yrotation
                                    JOINT LeftFinger12
                                    {
                                        OFFSET   2.323460   0.000000   0.000000
                                        CHANNELS 3 Zrotation Xrotation Yrotation
                                        End Site
                                        {
                                            OFFSET   2.273050   0.000000   0.000000
                                        }
                                    }
                                }
                            }
                            JOINT LeftFinger2
                            {
                                OFFSET   8.364480   0.000016   1.078090
                                CHANNELS 3 Zrotation Xrotation Yrotation
                                JOINT LeftFinger21
                                {
                                    OFFSET   5.111620   0.000000   0.000000
                                    CHANNELS 3 Zrotation Xrotation Yrotation
                                    JOINT LeftFinger22
                                    {
                                        OFFSET   2.788160   0.000017   0.000000
                                        CHANNELS 3 Zrotation Xrotation Yrotation
                                        End Site
                                        {
                                            OFFSET   2.727660   0.000000   0.000000
                                        }
                                    }
                                }
                            }
                            JOINT LeftFinger3
                            {
                                OFFSET   7.899780   0.000015  -1.078090
                                CHANNELS 3 Zrotation Xrotation Yrotation
                                JOINT LeftFinger31
                                {
                                    OFFSET   4.646920   0.000000   0.000000
                                    CHANNELS 3 Zrotation Xrotation Yrotation
                                    JOINT LeftFinger32
                                    {
                                        OFFSET   2.323470   0.000000   0.000000
                                        CHANNELS 3 Zrotation Xrotation Yrotation
                                        End Site
                                        {
                                            OFFSET   2.273050   0.000000   0.000000
                                        }
                                    }
                                }
                            }
                            JOINT LeftFinger4
                            {
                                OFFSET   7.435090   0.000000  -3.252850
                                CHANNELS 3 Zrotation Xrotation Yrotation
                                JOINT LeftFinger41
                                {
                                    OFFSET   3.717550   0.000000   0.000000
                                    CHANNELS 3 Zrotation Xrotation Yrotation
                                    JOINT LeftFinger42
                                    {
                                        OFFSET   1.858760   0.000000   0.000000
                                        CHANNELS 3 Zrotation Xrotation Yrotation
                                        End Site
                                        {
                                            OFFSET   1.818440   0.000000   0.000000
                                        }
                                    }
                                }
                            }
                        }
                    }
                }
            }
            JOINT RightCollar
            {
                OFFSET  -3.911900  19.017000  -0.467062
                CHANNELS 3 Zrotation Xrotation Yrotation
                JOINT RightShoulder
                {
                    OFFSET -10.383700   0.000015   0.000000
                    CHANNELS 3 Zrotation Xrotation Yrotation
                    JOINT RightElbow
                    {
                        OFFSET -26.662100   0.001341   0.000385
                        CHANNELS 3 Zrotation Xrotation Yrotation
                        JOINT RightWrist
                        {
                            OFFSET -28.869000   0.000025  -0.000080
                            CHANNELS 3 Zrotation Xrotation Yrotation
                            JOINT RightFinger0
                            {
                                OFFSET  -2.044650  -2.323490   3.252850
                                CHANNELS 3 Zrotation Xrotation Yrotation
                                JOINT RightFinger01
                                {
                                    OFFSET  -3.088130   0.000000   0.000000
                                    CHANNELS 3 Zrotation Xrotation Yrotation
                                    JOINT RightFinger02
                                    {
                                        OFFSET  -2.639460   0.000000   0.000000
                                        CHANNELS 3 Zrotation Xrotation Yrotation
                                        End Site
                                        {
                                            OFFSET  -2.582190   0.000000   0.000000
                                        }
                                    }
                                }
                            }
                            JOINT RightFinger1
                            {
                                OFFSET  -8.364480   0.000000   3.252850
                                CHANNELS 3 Zrotation Xrotation Yrotation
                                JOINT RightFinger11
                                {
                                    OFFSET  -4.646930   0.000000   0.000000
                                    CHANNELS 3 Zrotation Xrotation Yrotation
                                    JOINT RightFinger12
                                    {
                                        OFFSET  -2.323470   0.000000   0.000000
                                        CHANNELS 3 Zrotation Xrotation Yrotation
                                        End Site
                                        {
                                            OFFSET  -2.273050   0.000000   0.000000
                                        }
                                    }
                                }
                            }
                            JOINT RightFinger2
                            {
                                OFFSET  -8.364480   0.000000   1.078090
                                CHANNELS 3 Zrotation Xrotation Yrotation
                                JOINT RightFinger21
                                {
                                    OFFSET  -5.111610   0.000000   0.000000
                                    CHANNELS 3 Zrotation Xrotation Yrotation
                                    JOINT RightFinger22
                                    {
                                        OFFSET  -2.788160   0.000000   0.000000
                                        CHANNELS 3 Zrotation Xrotation Yrotation
                                        End Site
                                        {
                                            OFFSET  -2.727660   0.000000   0.000000
                                        }
                                    }
                                }
                            }
                            JOINT RightFinger3
                            {
                                OFFSET  -7.899780   0.000000  -1.078090
                                CHANNELS 3 Zrotation Xrotation Yrotation
                                JOINT RightFinger31
                                {
                                    OFFSET  -4.646920   0.000000   0.000000
                                    CHANNELS 3 Zrotation Xrotation Yrotation
                                    JOINT RightFinger32
                                    {
                                        OFFSET  -2.323470   0.000000   0.000000
                                        CHANNELS 3 Zrotation Xrotation Yrotation
                                        End Site
                                        {
                                            OFFSET  -2.273050   0.000000   0.000000
                                        }
                                    }
                                }
                            }
                            JOINT RightFinger4
                            {
                                OFFSET  -7.435090   0.000000  -3.252850
                                CHANNELS 3 Zrotation Xrotation Yrotation
                                JOINT RightFinger41
                                {
                                    OFFSET  -3.717550   0.000000   0.000000
                                    CHANNELS 3 Zrotation Xrotation Yrotation
                                    JOINT RightFinger42
                                    {
                                        OFFSET  -1.858770   0.000000   0.000000
                                        CHANNELS 3 Zrotation Xrotation Yrotation
                                        End Site
                                        {
                                            OFFSET  -1.818440   0.000000   0.000000
                                        }
                                    }
                                }
                            }
                        }
                    }
                }
            }
        }
    }
    JOINT LeftHip
    {
        OFFSET   9.783010   0.000000   0.000000
        CHANNELS 3 Zrotation Xrotation Yrotation
        JOINT LeftKnee
        {
            OFFSET   0.000070 -41.789100   0.000028
            CHANNELS 3 Zrotation Xrotation Yrotation
            JOINT LeftAnkle
            {
                OFFSET   0.000087 -41.133200  -0.000100
                CHANNELS 3 Zrotation Xrotation Yrotation
                JOINT LeftToe
                {
                    OFFSET   0.000000  -6.358960  14.674500
                    CHANNELS 3 Zrotation Xrotation Yrotation
                    End Site
                    {
                        OFFSET   0.000000   0.000000   3.913200
                    }
                }
            }
        }
    }
    JOINT RightHip
    {
        OFFSET  -9.783020   0.000000   0.000000
        CHANNELS 3 Zrotation Xrotation Yrotation
        JOINT RightKnee
        {
            OFFSET   0.000044 -41.789100  -0.000870
            CHANNELS 3 Zrotation Xrotation Yrotation
            JOINT RightAnkle
            {
                OFFSET  -0.000090 -41.133200  -0.000245
                CHANNELS 3 Zrotation Xrotation Yrotation
                JOINT RightToe
                {
                    OFFSET   0.000000  -6.358960  14.674500
                    CHANNELS 3 Zrotation Xrotation Yrotation
                    End Site
                    {
                        OFFSET   0.000000   0.000000   3.913200
                    }
                }
            }
        }
    }
}
MOTION
Frames: 4
Frame Time:   0.016667
 -0.060149  89.459700  -0.866638  -1.039870  -2.029730   1.464790   0.603804   1.864310  -0.237681   1.216310   3.725990  -0.495409  -1.204130   1.294650   0.027742  -1.977440   2.621610   2.351420  -3.906550   3.434010   8.728300 -78.237600  10.441000   2.130120  -0.453707   1.601930 -15.802200  11.097500  -6.228190  -2.591890  38.836400  30.704600 -51.541600 -32.037100   0.000000   0.000111 -11.018600   0.000000  -0.001448 -34.824800  -0.866263   1.245040 -28.503800  -0.009026   0.000464 -19.952600   0.000687   0.007357 -30.608400  -3.731880   6.275620 -46.219800  -0.001749  -0.000940 -30.782400   0.002613  -0.001258 -28.581600  -3.499100   6.400790 -41.939400   0.002533   0.001509 -27.931700   0.001325   0.001214 -36.869400  -4.381440   5.830470 -55.637900   0.001677  -0.002563 -37.054900  -0.004954  -0.002639   7.895850   4.417590   4.054640  71.701700  -1.700840  -4.297450   4.525330  -5.778660  14.075700 -15.649600  -1.279030   4.977910 -48.005600  43.133400  87.007400  22.373800   0.001027  -0.001046   6.186900   0.001039  -0.000488  31.497500   2.415690   3.935060  25.838600  -0.002087   0.001541  18.095600  -0.014377   0.001882  28.481300  -3.692080  -6.768250  39.097300  -0.003492   0.000000  26.038800  -0.003317   0.000000  28.539400  -3.699000  -6.764470  40.584000  -0.002766   0.011961  27.028900   0.002831   0.005653  35.029200  -4.440940  -6.303510  52.910900   0.001372  -0.006277  35.238600  -0.002276  -0.001969   4.161920   3.924330  -0.174568  -0.062163   0.836095  14.802500  -3.953470  -2.736830   1.079030  -0.000000   0.000000   0.000000  -2.185150   3.667450  -3.302420   0.625833   0.966378 -13.652800   0.396470  -1.915270  -1.908060   0.000000   0.000000   0.000000
 -0.061122  89.459700  -0.866808  -1.038920  -2.049350   1.476750   0.599620   1.879730  -0.227037   1.207670   3.756980  -0.474138  -1.204160   1.313020   0.027832  -1.980180   2.658900   2.392810  -3.909450   3.434050   8.728300 -78.235900  10.471100   2.114860  -0.452539   1.579800 -15.787800  11.098000  -6.235680  -2.599650  38.842500  30.704700 -51.568900 -32.025000   0.000000   0.000055 -11.012500   0.000000  -0.001441 -34.825800  -0.850806   1.223040 -28.503800  -0.009039   0.000462 -19.952600   0.000693   0.007349 -30.621300  -3.731900   6.272030 -46.239000  -0.001749  -0.000944 -30.795200   0.002604  -0.001260 -28.581700  -3.499210   6.398810 -41.933200   0.002534   0.001522 -27.927500   0.001325   0.001225 -36.862100  -4.381540   5.828980 -55.627200   0.001677  -0.002562 -37.047800  -0.004954  -0.002641   7.895550   4.411890   4.046820  71.698400  -1.672690  -4.297370   4.518360  -5.692040  13.965100 -15.656600  -1.406350   5.095700 -48.027900  43.155200  87.041700  22.335700   0.001019  -0.001050   6.167840   0.001035  -0.000498  31.502000   2.432120   3.960730  25.843100  -0.002083   0.001538  18.095600  -0.014379   0.001877  28.484400  -3.677350  -6.740870  39.107700  -0.003480   0.000000  26.045700  -0.003316   0.000000  28.542900  -3.684220  -6.737120  40.586800  -0.002753   0.011977  27.030700   0.002826   0.005632  35.073100  -4.428520  -6.274240  52.977200   0.001378  -0.006279  35.282800  -0.002281  -0.001978   4.162150   3.943600  -0.181155  -0.062140   0.837608  14.802500  -3.953920  -2.737990   1.071920  -0.000000   0.000000  -0.000000  -2.191130   3.686940  -3.302490   0.636600   0.968272 -13.664100   0.394811  -1.919030  -1.909120  -0.000000   0.000000   0.000000
 -0.063144  89.459700  -0.866978  -1.037260  -2.080790   1.498890   0.593200   1.903860  -0.210678   1.194400   3.805430  -0.441445  -1.204210   1.347150   0.028333  -1.981710   2.728200   2.467910  -3.915820   3.434080   8.728300 -78.232800  10.518100   2.088580  -0.450528   1.549320 -15.767100  11.100300  -6.248310  -2.614200  38.850600  30.704300 -51.607600 -32.008400   0.000000   0.000000 -11.004200   0.000000  -0.001434 -34.829300  -0.829703   1.192270 -28.503800  -0.009074   0.000458 -19.952600   0.000711   0.007328 -30.644200  -3.731950   6.265680 -46.273000  -0.001750  -0.000951 -30.817900   0.002580  -0.001265 -28.581900  -3.499340   6.394890 -41.926900   0.002535   0.001558 -27.923300   0.001325   0.001252 -36.854900  -4.381650   5.825730 -55.616500   0.001678  -0.002559 -37.040600  -0.004954  -0.002645   7.893920   4.400160   4.038960  71.694700  -1.620790  -4.297240   4.511740  -5.605310  13.854500 -15.663000  -1.533610   5.215770 -48.028100  43.176900  87.076100  22.297600   0.001000  -0.001064   6.148780   0.001026  -0.000512  31.510300   2.448550   3.986400  25.850900  -0.002070   0.001528  18.095600  -0.014383   0.001865  28.487500  -3.662620  -6.713490  39.121200  -0.003448   0.000000  26.054700  -0.003315   0.000000  28.546400  -3.669430  -6.709770  40.606100  -0.002719   0.012016  27.043600   0.002811   0.005581  35.131700  -4.416090  -6.244980  53.059000   0.001394  -0.006282  35.337300  -0.002295  -0.002001   4.162660   3.975480  -0.191180  -0.061955   0.839121  14.802500  -3.954720  -2.739160   1.059510   0.000000   0.000000  -0.000000  -2.199420   3.719250  -3.302600   0.653335   0.971032 -13.682900   0.391937  -1.924710  -1.912460   0.000000   0.000000  -0.000000
 -0.065766  89.459600  -0.866958  -1.035800  -2.102400   1.521110   0.589293   1.919650  -0.200855   1.186320   3.837110  -0.421820  -1.201900   1.381120   0.029532  -1.977310   2.797140   2.542060  -3.925300   3.433960   8.740690 -78.228500  10.547400   2.065710  -0.448503   1.540030 -15.758100  11.106200  -6.258700  -2.633560  38.853400  30.702900 -51.622800 -32.002400   0.000043   0.000051 -11.001200   0.000000  -0.001498 -34.837800  -0.822574   1.179210 -28.509700  -0.009131   0.000453 -19.956700   0.000741   0.007293 -30.665500  -3.731990   6.259790 -46.304500  -0.001749  -0.000963 -30.838900   0.002543  -0.001274 -28.582200  -3.498940   6.390380 -41.941700   0.002536   0.001614 -27.933100   0.001325   0.001293 -36.857200  -4.381590   5.821470 -55.620000   0.001679  -0.002554 -37.042900  -0.004953  -0.002653   7.889760   4.387090   4.049900  71.694900  -1.572880  -4.304280   4.508880  -5.616130  13.881300 -15.654300  -1.521230   5.218350 -47.978200  43.173900  87.074000  22.300200   0.000972  -0.001092   6.150070   0.001013  -0.000515  31.517800   2.430900   3.956960  25.855900  -0.002047   0.001513  18.098000  -0.014385   0.001848  28.485400  -3.683360  -6.751760  39.123300  -0.003396  -0.000051  26.056100  -0.003290  -0.000038  28.545600  -3.690400  -6.747910  40.672200  -0.002668   0.012075  27.087600   0.002787   0.005503  35.144500  -4.442230  -6.279860  53.077000   0.001419  -0.006287  35.349300  -0.002318  -0.002037   4.164880   3.999610  -0.197794  -0.060608   0.835204  14.796900  -3.955300  -2.737970   1.049880  -0.000000   0.000000   0.000000  -2.202380   3.742590  -3.302680   0.663618   0.972624 -13.697900   0.389524  -1.928460  -1.918960  -0.000000   0.000000  -0.000000
